<svg xmlns="http://www.w3.org/2000/svg" xmlns:xlink="http://www.w3.org/1999/xlink" version="1.1" id="Layer_reel" viewBox="4.95 0 168.7 163.4">
  <style type="text/css">
    .st1 {
      fill: #98C100;
    }

    .green {
      fill: #98C100
    }
  </style>
  <g>
    <g>
      <g>
        <path class="green" d="M89.4,139.6l-10.8-2.1v-14l2.2,0.4l8.6,1.6l10.8-2.1v14L89.4,139.6z M81.4,135.2l8,1.5l8-1.5V127l-8,1.5     l-8-1.5V135.2z"></path>
      </g>
      <g>
        <path class="st1" d="M89.3,106.1c-17.2,0-31.2-14-31.2-31.2s14-31.2,31.2-31.2s31.2,14,31.2,31.2S106.5,106.1,89.3,106.1z      M89.3,46.6C73.7,46.6,61,59.3,61,74.9s12.7,28.4,28.4,28.4s28.4-12.7,28.4-28.4S105,46.6,89.3,46.6z"></path>
      </g>
      <g>
        <path class="st1" d="M89.3,106.1c-17.2,0-31.2-14-31.2-31.2s14-31.2,31.2-31.2s31.2,14,31.2,31.2S106.5,106.1,89.3,106.1z      M89.3,46.6C73.7,46.6,61,59.3,61,74.9s12.7,28.4,28.4,28.4s28.4-12.7,28.4-28.4S105,46.6,89.3,46.6z"></path>
      </g>
      <g>
        <path class="st1" d="M172.4,47.5L89.3,31.3L6.3,47.5L6.1,46C4.6,30.8,5,19.6,5,19.5l0-1.1L89.3,0l84.3,18.4l0,1.1     c0,0.1,0.4,11.3-1.1,26.5L172.4,47.5z M7.8,20.7c-0.1,3-0.1,12,1,23.5l80.6-15.7l80.6,15.7c1.1-11.5,1-20.5,1-23.5L89.3,2.9     L7.8,20.7z"></path>
      </g>
      <g>
        <g>
          <path class="green" d="M13.3,39.6l-0.1-1.7c-0.1-4.3-0.2-11.8-0.1-14l0-1.1l15.2-3.1v16.6L13.3,39.6z M16,25.1c0,2.5,0,7.3,0.1,11      l9.5-2.1V23.1L16,25.1z"></path>
        </g>
        <g>
          <path class="green" d="M32.2,35.4V18.9L51.6,15v16.2L32.2,35.4z M35,21.2v10.7l13.8-3V18.4L35,21.2z"></path>
        </g>
        <g>
          <path class="green" d="M55.4,30.4V14.2l19.4-3.9v15.8L55.4,30.4z M58.2,16.5v10.3l13.8-3V13.7L58.2,16.5z"></path>
        </g>
        <g>
          <path class="green" d="M100.2,25.6l-10.8-2.7l-10.8,2.7v-16l10.9-2.2l0.2,0l10.5,2.1L100.2,25.6L100.2,25.6z M89.2,20l0.5,0      l7.6,1.9V11.8l-8-1.6l-8,1.6V22L89.2,20z"></path>
        </g>
      </g>
      <g>
        <g>
          <path class="green" d="M165.4,39.6l-15.1-3.3V19.7l15.2,3.1l0,1.1c0,2.1,0,9.6-0.1,14L165.4,39.6z M153.1,34l9.5,2.1      c0.1-3.7,0.1-8.5,0.1-11l-9.6-2V34z"></path>
        </g>
        <g>
          <path class="green" d="M146.5,35.4l-19.4-4.3V15l19.4,3.9V35.4z M129.9,28.9l13.8,3V21.2l-13.8-2.8V28.9z"></path>
        </g>
        <g>
          <path class="green" d="M123.3,30.4l-19.4-4.3V10.3l19.4,3.9L123.3,30.4L123.3,30.4z M106.7,23.8l13.8,3V16.5l-13.8-2.8V23.8z"></path>
        </g>
      </g>
      <g>
        <path class="st1" d="M89.3,106.1c-17.2,0-31.2-14-31.2-31.2s14-31.2,31.2-31.2s31.2,14,31.2,31.2S106.5,106.1,89.3,106.1z      M89.3,46.6C73.7,46.6,61,59.3,61,74.9s12.7,28.4,28.4,28.4s28.4-12.7,28.4-28.4S105,46.6,89.3,46.6z"></path>
      </g>
      <g>
        <path class="green" d="M51.6,132.4l-19.5-3.7v-14l19.5,3.7V132.4z M34.9,126.4l13.8,2.6v-8.2l-13.8-2.6V126.4z"></path>
      </g>
      <g>
        <path class="st1" d="M72.4,117.5l-47.7-9.3l-0.3-0.5c-0.8-1.2-1.6-2.6-2.3-3.9C11.8,85.4,7.7,62.2,6.1,46L6,44.7l28.4-5.5     l0.1,1.6c1.3,14.2,4.5,34.3,12.7,49c4.2,7.6,11.3,15.8,21.1,24.3L72.4,117.5z M26.4,105.6l36.3,7.1c-8.1-7.5-14.1-14.7-17.9-21.6     c-8.1-14.6-11.5-34.2-12.9-48.6L9.1,47c1.7,15.9,5.7,37.9,15.4,55.4C25.1,103.5,25.8,104.6,26.4,105.6z"></path>
      </g>
      <g>
        <path class="green" d="M74.8,136.9l-19.5-3.7v-14l19.5,3.7V136.9z M58.1,130.8l13.8,2.6v-8.2l-13.8-2.6     C58.1,122.6,58.1,130.8,58.1,130.8z"></path>
      </g>
      <g>
        <path class="green" d="M103.9,136.9v-14l19.5-3.7v14L103.9,136.9z M106.8,125.2v8.2l13.8-2.6v-8.2L106.8,125.2z"></path>
      </g>
      <g>
        <path class="st1" d="M89.3,163.4l-0.7-0.4c-0.2-0.1-16.6-8.8-33.7-22.7l-4.4-3.6l38.8,7.6l38.8-7.6l-4.4,3.6     C106.6,154.2,90.2,163,90,163.1L89.3,163.4z M61.4,141.8c13.2,10.1,25.1,16.8,28,18.4c2.9-1.6,14.8-8.3,28-18.4l-28,5.5     L61.4,141.8z"></path>
      </g>
      <g>
        <path class="green" d="M127.2,132.4v-14l19.5-3.7v14L127.2,132.4z M130,120.8v8.2l13.8-2.6v-8.2L130,120.8z"></path>
      </g>
      <g>
        <path class="st1" d="M106.3,117.5l4-3.5c9.8-8.5,16.9-16.7,21.2-24.3c8.1-14.6,11.4-34.7,12.7-49l0.1-1.6l28.5,5.6l-0.1,1.3     c-1.6,16.2-5.7,39.4-15.9,57.8c-0.7,1.3-1.5,2.6-2.3,3.9l-0.3,0.5L106.3,117.5z M146.8,42.5c-1.4,14.5-4.8,34.1-12.9,48.6     c-3.8,6.8-9.8,14.1-17.9,21.6l36.3-7.1c0.6-1,1.3-2.1,1.9-3.2c9.7-17.5,13.8-39.5,15.4-55.4L146.8,42.5z"></path>
      </g>
    </g>
  </g>
</svg>