<svg xmlns="http://www.w3.org/2000/svg" xmlns:xlink="http://www.w3.org/1999/xlink" version="1.1" id="Layer_1" x="0px" y="0px" style="enable-background:new 0 0 532.6 163.4;" xml:space="preserve" viewBox="278 113.2 183.6 8.3">
  <style type="text/css">
    .st0 {
      fill: #46BABA;
    }

    .st1 {
      fill: #98C100;
    }

    .green {
      fill: #98C100
    }
  </style>
  <g>
    <path class="st0" d="M278,117.3c0-0.5,0.1-1,0.3-1.5c0.2-0.5,0.4-0.9,0.8-1.3c0.3-0.4,0.7-0.7,1.2-0.9c0.5-0.2,1-0.4,1.6-0.4   c0.7,0,1.3,0.2,1.9,0.5c0.5,0.3,0.9,0.8,1.1,1.3l-0.8,0.5c-0.2-0.3-0.4-0.6-0.6-0.8s-0.5-0.3-0.8-0.4c-0.3-0.1-0.6-0.1-0.8-0.1   c-0.4,0-0.8,0.1-1.2,0.3c-0.3,0.2-0.6,0.4-0.9,0.7c-0.2,0.3-0.4,0.6-0.5,1c-0.1,0.4-0.2,0.8-0.2,1.1c0,0.4,0.1,0.8,0.2,1.2   c0.1,0.4,0.3,0.7,0.6,1c0.2,0.3,0.6,0.5,0.9,0.7c0.3,0.2,0.7,0.3,1.1,0.3c0.3,0,0.6,0,0.9-0.1c0.3-0.1,0.6-0.2,0.8-0.5   s0.5-0.5,0.6-0.8l0.8,0.5c-0.2,0.4-0.4,0.7-0.8,1s-0.7,0.5-1.2,0.6c-0.4,0.1-0.9,0.2-1.3,0.2c-0.5,0-1.1-0.1-1.5-0.4   s-0.9-0.6-1.2-1s-0.6-0.9-0.8-1.3C278.1,118.4,278,117.9,278,117.3z"></path>
    <path class="st0" d="M290.6,121.5c-0.6,0-1.1-0.1-1.5-0.3c-0.5-0.2-0.9-0.5-1.2-0.9c-0.3-0.4-0.6-0.8-0.8-1.3   c-0.2-0.5-0.3-1-0.3-1.5c0-0.5,0.1-1,0.3-1.5c0.2-0.5,0.5-0.9,0.8-1.3c0.3-0.4,0.8-0.7,1.2-0.9s1-0.3,1.5-0.3   c0.6,0,1.1,0.1,1.5,0.4c0.5,0.2,0.9,0.6,1.2,0.9c0.3,0.4,0.6,0.8,0.8,1.3c0.2,0.5,0.3,1,0.3,1.5c0,0.5-0.1,1-0.3,1.5   c-0.2,0.5-0.5,0.9-0.8,1.3c-0.3,0.4-0.8,0.7-1.2,0.9C291.7,121.4,291.2,121.5,290.6,121.5z M287.9,117.4c0,0.4,0.1,0.8,0.2,1.2   s0.3,0.7,0.6,1s0.5,0.5,0.9,0.7s0.7,0.3,1.1,0.3c0.4,0,0.8-0.1,1.2-0.3s0.6-0.4,0.9-0.7c0.2-0.3,0.4-0.6,0.5-1   c0.1-0.4,0.2-0.8,0.2-1.1c0-0.4-0.1-0.8-0.2-1.2c-0.1-0.4-0.3-0.7-0.6-1s-0.5-0.5-0.9-0.7s-0.7-0.3-1.1-0.3c-0.4,0-0.8,0.1-1.2,0.3   c-0.3,0.2-0.6,0.4-0.9,0.7c-0.2,0.3-0.4,0.6-0.6,1C287.9,116.6,287.9,117,287.9,117.4z"></path>
    <path class="st0" d="M298,115.3v6.2h-1v-8.1h0.9l4.9,6.3v-6.3h1v8.1h-0.9L298,115.3z"></path>
    <path class="st0" d="M306.4,117.3c0-0.5,0.1-1,0.3-1.5c0.2-0.5,0.4-0.9,0.8-1.3c0.3-0.4,0.7-0.7,1.2-0.9c0.5-0.2,1-0.4,1.6-0.4   c0.7,0,1.3,0.2,1.9,0.5c0.5,0.3,0.9,0.8,1.1,1.3l-0.8,0.5c-0.2-0.3-0.4-0.6-0.6-0.8s-0.5-0.3-0.8-0.4c-0.3-0.1-0.6-0.1-0.8-0.1   c-0.4,0-0.8,0.1-1.2,0.3c-0.3,0.2-0.6,0.4-0.9,0.7c-0.2,0.3-0.4,0.6-0.5,1c-0.1,0.4-0.2,0.8-0.2,1.1c0,0.4,0.1,0.8,0.2,1.2   c0.1,0.4,0.3,0.7,0.6,1c0.2,0.3,0.6,0.5,0.9,0.7c0.3,0.2,0.7,0.3,1.1,0.3c0.3,0,0.6,0,0.9-0.1c0.3-0.1,0.6-0.2,0.8-0.5   s0.5-0.5,0.6-0.8l0.8,0.5c-0.2,0.4-0.4,0.7-0.8,1s-0.7,0.5-1.2,0.6c-0.4,0.1-0.9,0.2-1.3,0.2c-0.5,0-1.1-0.1-1.5-0.4   s-0.9-0.6-1.2-1s-0.6-0.9-0.8-1.3C306.5,118.4,306.4,117.9,306.4,117.3z"></path>
    <path class="st0" d="M321.3,120.5v0.9h-5.5v-8.1h5.4v0.9h-4.4v2.6h3.8v0.9h-3.8v2.8L321.3,120.5L321.3,120.5z"></path>
    <path class="st0" d="M323.8,121.4v-8.1h3.4c0.4,0,0.7,0.1,1,0.2c0.3,0.1,0.5,0.3,0.8,0.6s0.4,0.5,0.5,0.8s0.2,0.6,0.2,0.9   c0,0.4-0.1,0.9-0.3,1.3c-0.2,0.4-0.5,0.7-0.8,1c-0.4,0.2-0.8,0.4-1.2,0.4h-2.4v2.9L323.8,121.4L323.8,121.4z M324.8,117.6h2.4   c0.3,0,0.5-0.1,0.7-0.2c0.2-0.1,0.4-0.4,0.5-0.6c0.1-0.3,0.2-0.5,0.2-0.8c0-0.3-0.1-0.6-0.2-0.9c-0.1-0.2-0.3-0.4-0.5-0.6   c-0.2-0.1-0.5-0.2-0.7-0.2h-2.3V117.6z"></path>
    <path class="st0" d="M337.9,114.3h-2.8v7.2h-1v-7.2h-2.8v-0.9h6.6V114.3z"></path>
    <path class="st0" d="M343.9,121.4v-8.1h1v8.1H343.9z"></path>
    <path class="st0" d="M349,115.3v6.2h-1v-8.1h0.9l4.9,6.3v-6.3h1v8.1h-0.9L349,115.3z"></path>
    <path class="st0" d="M363.7,114.3h-2.8v7.2h-1v-7.2h-2.8v-0.9h6.6V114.3L363.7,114.3z"></path>
    <path class="st0" d="M369,121.5c-0.6,0-1.1-0.1-1.6-0.3c-0.5-0.2-0.9-0.5-1.2-0.9c-0.3-0.4-0.6-0.8-0.8-1.3c-0.2-0.5-0.3-1-0.3-1.5   c0-0.5,0.1-1,0.3-1.5c0.2-0.5,0.5-0.9,0.8-1.3c0.3-0.4,0.8-0.7,1.2-0.9c0.5-0.2,1-0.3,1.5-0.3c0.6,0,1.1,0.1,1.5,0.4   c0.5,0.2,0.9,0.6,1.2,0.9c0.3,0.4,0.6,0.8,0.8,1.3c0.2,0.5,0.3,1,0.3,1.5c0,0.5-0.1,1-0.3,1.5c-0.2,0.5-0.5,0.9-0.8,1.3   s-0.8,0.7-1.2,0.9C370.1,121.4,369.5,121.5,369,121.5z M366.2,117.4c0,0.4,0.1,0.8,0.2,1.2s0.3,0.7,0.6,1s0.5,0.5,0.9,0.7   c0.3,0.2,0.7,0.3,1.1,0.3c0.4,0,0.8-0.1,1.2-0.3s0.6-0.4,0.9-0.7s0.4-0.6,0.6-1c0.1-0.4,0.2-0.8,0.2-1.1c0-0.4-0.1-0.8-0.2-1.2   s-0.3-0.7-0.6-1s-0.5-0.5-0.9-0.7c-0.3-0.2-0.7-0.3-1.1-0.3c-0.4,0-0.8,0.1-1.2,0.3c-0.3,0.2-0.6,0.4-0.9,0.7   c-0.2,0.3-0.4,0.6-0.5,1C366.3,116.6,366.2,117,366.2,117.4z"></path>
    <path class="st0" d="M378.9,117.3c0-0.5,0.1-1,0.3-1.5c0.2-0.5,0.4-0.9,0.8-1.3c0.3-0.4,0.7-0.7,1.2-0.9s1-0.4,1.6-0.4   c0.7,0,1.3,0.2,1.9,0.5c0.5,0.3,0.9,0.8,1.1,1.3l-0.8,0.5c-0.2-0.3-0.4-0.6-0.6-0.8s-0.5-0.3-0.8-0.4c-0.3-0.1-0.6-0.1-0.8-0.1   c-0.4,0-0.8,0.1-1.2,0.3c-0.3,0.2-0.6,0.4-0.9,0.7c-0.2,0.3-0.4,0.6-0.5,1c-0.1,0.4-0.2,0.8-0.2,1.1c0,0.4,0.1,0.8,0.2,1.2   c0.1,0.4,0.3,0.7,0.6,1c0.2,0.3,0.5,0.5,0.9,0.7c0.3,0.2,0.7,0.3,1.1,0.3c0.3,0,0.6,0,0.9-0.1c0.3-0.1,0.6-0.2,0.8-0.5   c0.3-0.2,0.5-0.5,0.6-0.8l0.9,0.5c-0.2,0.4-0.4,0.7-0.8,1s-0.7,0.5-1.2,0.6c-0.4,0.1-0.9,0.2-1.3,0.2c-0.6,0-1.1-0.1-1.5-0.4   c-0.5-0.2-0.9-0.6-1.2-1s-0.6-0.9-0.8-1.3C379,118.4,378.9,117.9,378.9,117.3z"></path>
    <path class="st0" d="M391.5,121.5c-0.6,0-1.1-0.1-1.5-0.3c-0.5-0.2-0.9-0.5-1.2-0.9c-0.3-0.4-0.6-0.8-0.8-1.3   c-0.2-0.5-0.3-1-0.3-1.5c0-0.5,0.1-1,0.3-1.5c0.2-0.5,0.5-0.9,0.8-1.3c0.4-0.4,0.8-0.7,1.2-0.9c0.5-0.2,1-0.3,1.5-0.3   c0.6,0,1.1,0.1,1.6,0.4c0.5,0.2,0.9,0.6,1.2,0.9c0.3,0.4,0.6,0.8,0.8,1.3c0.2,0.5,0.3,1,0.3,1.5c0,0.5-0.1,1-0.3,1.5   c-0.2,0.5-0.5,0.9-0.8,1.3s-0.8,0.7-1.2,0.9C392.5,121.4,392,121.5,391.5,121.5z M388.7,117.4c0,0.4,0.1,0.8,0.2,1.2s0.3,0.7,0.6,1   s0.5,0.5,0.9,0.7c0.3,0.2,0.7,0.3,1.1,0.3c0.4,0,0.8-0.1,1.2-0.3s0.6-0.4,0.9-0.7s0.4-0.6,0.6-1c0.1-0.4,0.2-0.8,0.2-1.1   c0-0.4-0.1-0.8-0.2-1.2s-0.3-0.7-0.6-1s-0.5-0.5-0.9-0.7c-0.3-0.2-0.7-0.3-1.1-0.3c-0.4,0-0.8,0.1-1.2,0.3   c-0.3,0.2-0.6,0.4-0.9,0.7c-0.2,0.3-0.4,0.6-0.5,1C388.8,116.6,388.7,117,388.7,117.4z"></path>
    <path class="st0" d="M404.8,121.4v-6.2l-2.7,4.7h-0.6l-2.7-4.7v6.2h-1v-8.1h1.1l2.9,5.2l2.9-5.2h1.1v8.1L404.8,121.4L404.8,121.4z"></path>
    <path class="st0" d="M408.9,121.4v-8.1h3.4c0.4,0,0.7,0.1,1,0.2c0.3,0.1,0.6,0.3,0.8,0.6s0.4,0.5,0.5,0.8s0.2,0.6,0.2,0.9   c0,0.4-0.1,0.9-0.3,1.3c-0.2,0.4-0.5,0.7-0.8,1c-0.4,0.2-0.8,0.4-1.2,0.4h-2.4v2.9L408.9,121.4L408.9,121.4z M409.9,117.6h2.4   c0.3,0,0.5-0.1,0.7-0.2c0.2-0.1,0.4-0.4,0.5-0.6c0.1-0.3,0.2-0.5,0.2-0.8c0-0.3-0.1-0.6-0.2-0.9c-0.1-0.2-0.3-0.4-0.5-0.6   c-0.2-0.1-0.5-0.2-0.7-0.2h-2.3V117.6L409.9,117.6z"></path>
    <path class="st0" d="M417.1,121.4v-8.1h1v7.2h4.5v0.9H417.1z"></path>
    <path class="st0" d="M430.4,120.5v0.9h-5.5v-8.1h5.4v0.9h-4.4v2.6h3.8v0.9h-3.8v2.8L430.4,120.5L430.4,120.5z"></path>
    <path class="st0" d="M438.8,114.3H436v7.2h-1v-7.2h-2.8v-0.9h6.6V114.3L438.8,114.3z"></path>
    <path class="st0" d="M441,121.4v-8.1h1v8.1H441z"></path>
    <path class="st0" d="M448.4,121.5c-0.6,0-1.1-0.1-1.6-0.3c-0.5-0.2-0.9-0.5-1.2-0.9c-0.3-0.4-0.6-0.8-0.8-1.3   c-0.2-0.5-0.3-1-0.3-1.5c0-0.5,0.1-1,0.3-1.5c0.2-0.5,0.5-0.9,0.8-1.3c0.3-0.4,0.8-0.7,1.2-0.9c0.5-0.2,1-0.3,1.5-0.3   c0.6,0,1.1,0.1,1.5,0.4c0.5,0.2,0.9,0.6,1.2,0.9c0.3,0.4,0.6,0.8,0.8,1.3c0.2,0.5,0.3,1,0.3,1.5c0,0.5-0.1,1-0.3,1.5   c-0.2,0.5-0.5,0.9-0.8,1.3s-0.8,0.7-1.2,0.9C449.5,121.4,449,121.5,448.4,121.5z M445.7,117.4c0,0.4,0.1,0.8,0.2,1.2   c0.1,0.4,0.3,0.7,0.6,1c0.2,0.3,0.5,0.5,0.9,0.7c0.3,0.2,0.7,0.3,1.1,0.3c0.4,0,0.8-0.1,1.2-0.3s0.6-0.4,0.9-0.7   c0.2-0.3,0.4-0.6,0.5-1c0.1-0.4,0.2-0.8,0.2-1.1c0-0.4-0.1-0.8-0.2-1.2c-0.1-0.4-0.3-0.7-0.6-1s-0.5-0.5-0.9-0.7s-0.7-0.3-1.1-0.3   c-0.4,0-0.8,0.1-1.2,0.3c-0.3,0.2-0.6,0.4-0.9,0.7c-0.2,0.3-0.4,0.6-0.6,1C445.7,116.6,445.7,117,445.7,117.4z"></path>
    <path class="st0" d="M455.8,115.3v6.2h-1v-8.1h0.9l4.9,6.3v-6.3h1v8.1h-0.9L455.8,115.3z"></path>
  </g>
</svg>