<svg xmlns="http://www.w3.org/2000/svg" xmlns:xlink="http://www.w3.org/1999/xlink" version="1.1" id="Layer_1" x="0px" y="0px" style="enable-background:new 0 0 532.6 163.4;" xml:space="preserve" viewBox="211.1 42.1 317.4 62.6">
  <style type="text/css">
    .st0 {
      fill: #46BABA;
    }

    .st1 {
      fill: #98C100;
    }

    .green {a
      fill: #98C100
    }
  </style>
  <g>
    <g>
      <g>
        <path class="st0" d="M233.9,50.5c-0.3-0.4-0.7-0.7-1.4-1.1c-0.6-0.4-1.3-0.8-2.2-1.1c-0.8-0.3-1.7-0.6-2.7-0.9     c-1-0.2-2-0.4-3-0.4c-2.2,0-3.9,0.4-5,1.2s-1.6,2-1.6,3.4c0,1.1,0.3,1.9,0.9,2.6s1.5,1.1,2.8,1.6c1.3,0.4,2.8,0.8,4.7,1.3     c2.3,0.5,4.3,1.2,6,2c1.7,0.8,3,1.8,3.9,3c0.9,1.2,1.4,2.9,1.4,5c0,1.7-0.3,3.1-1,4.4c-0.7,1.2-1.6,2.2-2.7,3     c-1.1,0.8-2.5,1.4-4,1.7s-3.1,0.6-4.8,0.6c-1.7,0-3.4-0.2-5.1-0.6c-1.7-0.4-3.3-0.9-4.8-1.6c-1.5-0.7-2.9-1.5-4.2-2.5l2.5-4.6     c0.4,0.4,1,0.9,1.8,1.4s1.7,1,2.8,1.4c1,0.4,2.2,0.8,3.4,1.1c1.2,0.3,2.5,0.5,3.8,0.5c2.1,0,3.8-0.4,4.9-1.1     c1.1-0.7,1.7-1.8,1.7-3.3c0-1.1-0.4-2-1.1-2.7c-0.8-0.7-1.8-1.3-3.2-1.7c-1.4-0.5-3.1-0.9-5-1.4c-2.2-0.6-4.1-1.2-5.6-2     c-1.5-0.7-2.6-1.6-3.4-2.8c-0.7-1.1-1.1-2.6-1.1-4.4c0-2.2,0.5-4.1,1.6-5.7c1.1-1.5,2.6-2.7,4.4-3.5s4-1.2,6.3-1.2     c1.5,0,3,0.2,4.4,0.5c1.4,0.3,2.7,0.8,3.9,1.4c1.2,0.6,2.3,1.2,3.2,2L233.9,50.5z"></path>
        <path class="st0" d="M277.6,47.2h-11.3v29.3h-5.4V47.2h-11.4v-4.8h28.1L277.6,47.2L277.6,47.2z"></path>
        <path class="st0" d="M298.4,42.5h5.1l13.2,34h-5.7l-3.3-9.2h-13.6l-3.3,9.2h-5.7L298.4,42.5z M306.3,63.3L301,48.4l-5.4,14.9     H306.3z"></path>
        <path class="st0" d="M330.5,76.5v-34h5.4v29.3h18.2v4.8L330.5,76.5L330.5,76.5z"></path>
        <path class="st0" d="M375.6,42.6h5l4.2,11.6l4.2-11.6h5.1l-5.9,15.1l5.1,12.6L404,42.5h5.9l-13.9,34h-4.7l-6.4-15.2l-6.4,15.2     h-4.7l-13.9-34h5.9l10.6,27.8l5.1-12.6L375.6,42.6z"></path>
        <path class="st0" d="M430.5,42.5h5.1l13.2,34h-5.7l-3.3-9.2h-13.6l-3.3,9.2h-5.7L430.5,42.5z M438.4,63.3L433,48.4l-5.4,14.9     H438.4z"></path>
        <path class="st0" d="M462.6,76.5v-34h14.8c1.5,0,2.9,0.3,4.2,1S484,45,485,46c0.9,1.1,1.7,2.2,2.2,3.6c0.5,1.3,0.8,2.7,0.8,4     c0,1.5-0.3,3-0.8,4.3c-0.5,1.4-1.3,2.5-2.3,3.5c-1,1-2.2,1.7-3.5,2.2l8,12.9h-6l-7.4-11.8H468v11.8L462.6,76.5L462.6,76.5z      M468,60h9.4c1,0,1.9-0.3,2.6-0.9c0.8-0.6,1.4-1.4,1.8-2.3s0.7-2,0.7-3.2c0-1.2-0.3-2.2-0.8-3.2s-1.2-1.7-2-2.3s-1.7-0.8-2.6-0.8     H468L468,60L468,60z"></path>
        <path class="st0" d="M528.5,47.2h-11.3v29.3h-5.4V47.2h-11.4v-4.8h28.1V47.2z"></path>
      </g>
      <g>
        <path class="st0" d="M222.3,104.6V88.7h6.7c0.7,0,1.4,0.1,2,0.4s1.1,0.7,1.6,1.2c0.5,0.5,0.8,1.1,1,1.7c0.2,0.6,0.4,1.2,0.4,1.9     c0,0.9-0.2,1.7-0.6,2.5c-0.4,0.8-0.9,1.4-1.7,1.9s-1.6,0.8-2.5,0.8h-4.3v5.5L222.3,104.6L222.3,104.6z M224.8,96.8h4.1     c0.5,0,0.9-0.1,1.2-0.4s0.6-0.6,0.8-1.1c0.2-0.5,0.3-1,0.3-1.5c0-0.6-0.1-1.1-0.4-1.5c-0.2-0.4-0.5-0.8-0.9-1s-0.8-0.4-1.2-0.4     h-4L224.8,96.8L224.8,96.8z"></path>
        <path class="st0" d="M240.7,104.6V88.7h6.9c0.7,0,1.4,0.1,2,0.4s1.1,0.7,1.6,1.2c0.4,0.5,0.8,1.1,1,1.7s0.4,1.2,0.4,1.9     c0,0.7-0.1,1.4-0.4,2c-0.2,0.6-0.6,1.2-1.1,1.6c-0.5,0.5-1,0.8-1.6,1l3.7,6h-2.8l-3.4-5.5h-3.7v5.5L240.7,104.6L240.7,104.6z      M243.2,96.8h4.4c0.5,0,0.9-0.1,1.2-0.4c0.4-0.3,0.6-0.6,0.9-1.1c0.2-0.4,0.3-0.9,0.3-1.5c0-0.6-0.1-1.1-0.4-1.5     s-0.6-0.8-0.9-1.1c-0.4-0.3-0.8-0.4-1.2-0.4h-4.2L243.2,96.8L243.2,96.8z"></path>
        <path class="st0" d="M266.5,104.7c-1.1,0-2.1-0.2-3.1-0.7c-0.9-0.4-1.7-1.1-2.4-1.8c-0.7-0.8-1.2-1.6-1.6-2.6     c-0.4-1-0.6-1.9-0.6-3c0-1.1,0.2-2.1,0.6-3c0.4-1,0.9-1.8,1.6-2.6s1.5-1.4,2.4-1.8c0.9-0.4,1.9-0.7,3-0.7c1.1,0,2.2,0.2,3.1,0.7     c0.9,0.5,1.7,1.1,2.4,1.9c0.7,0.8,1.2,1.6,1.5,2.6c0.4,1,0.5,1.9,0.5,2.9c0,1-0.2,2.1-0.6,3c-0.4,1-0.9,1.8-1.6,2.6     s-1.5,1.4-2.4,1.8C268.6,104.5,267.6,104.7,266.5,104.7z M261.5,96.6c0,0.8,0.1,1.5,0.4,2.2c0.2,0.7,0.6,1.3,1,1.9     c0.4,0.5,1,1,1.6,1.3c0.6,0.3,1.3,0.5,2.1,0.5c0.8,0,1.5-0.2,2.2-0.5s1.2-0.8,1.6-1.3s0.8-1.2,1-1.9s0.3-1.4,0.3-2.1     c0-0.8-0.1-1.5-0.4-2.2s-0.6-1.3-1-1.9c-0.5-0.5-1-1-1.6-1.3c-0.6-0.3-1.3-0.5-2.1-0.5c-0.8,0-1.5,0.2-2.2,0.5s-1.2,0.8-1.6,1.3     s-0.8,1.2-1,1.9C261.6,95.2,261.5,95.9,261.5,96.6z"></path>
        <path class="st0" d="M281.2,104.6V88.7h5.6c1.7,0,3.1,0.4,4.3,1.1c1.1,0.7,2,1.7,2.6,2.9c0.6,1.2,0.9,2.5,0.9,4     c0,1.6-0.3,3-1,4.2c-0.6,1.2-1.5,2.1-2.7,2.8c-1.2,0.7-2.5,1-4.1,1L281.2,104.6L281.2,104.6z M292.1,96.6c0-1.1-0.2-2.1-0.6-2.9     c-0.4-0.9-1-1.5-1.8-2c-0.8-0.5-1.7-0.7-2.8-0.7h-3.1v11.5h3.1c1.1,0,2.1-0.2,2.8-0.8c0.8-0.5,1.4-1.2,1.8-2.1     C291.9,98.7,292.1,97.7,292.1,96.6z"></path>
        <path class="st0" d="M308.3,104.7c-1.3,0-2.3-0.2-3.2-0.6c-0.9-0.4-1.6-1-2.1-1.8s-0.9-1.6-1.2-2.6c-0.2-0.9-0.4-1.9-0.4-3v-8.1     h2.5v8.1c0,0.7,0.1,1.4,0.2,2.1c0.1,0.7,0.4,1.3,0.7,1.8c0.3,0.5,0.8,1,1.3,1.3c0.6,0.3,1.2,0.5,2.1,0.5c0.9,0,1.6-0.2,2.1-0.5     s1-0.8,1.3-1.3c0.3-0.6,0.6-1.2,0.7-1.8c0.1-0.7,0.2-1.4,0.2-2.1v-8.1h2.5v8.1c0,1.1-0.1,2.1-0.4,3.1s-0.7,1.8-1.2,2.5     c-0.6,0.7-1.2,1.3-2.1,1.7C310.6,104.5,309.6,104.7,308.3,104.7z"></path>
        <path class="st0" d="M322,96.5c0-1,0.2-1.9,0.5-2.9c0.3-0.9,0.9-1.8,1.5-2.6s1.5-1.4,2.4-1.8c1-0.5,2-0.7,3.2-0.7     c1.4,0,2.7,0.3,3.7,1c1,0.6,1.8,1.5,2.3,2.5l-2,1.3c-0.3-0.6-0.6-1.1-1.1-1.5c-0.5-0.4-1-0.6-1.5-0.8c-0.5-0.1-1.1-0.2-1.6-0.2     c-0.8,0-1.5,0.2-2.2,0.5c-0.6,0.3-1.1,0.8-1.6,1.3s-0.7,1.2-1,1.9c-0.2,0.7-0.3,1.4-0.3,2.1c0,0.8,0.1,1.5,0.4,2.2     c0.2,0.7,0.6,1.3,1,1.9c0.5,0.5,1,1,1.6,1.3c0.6,0.3,1.3,0.5,2,0.5c0.5,0,1.1-0.1,1.6-0.3c0.5-0.2,1.1-0.5,1.5-0.9     s0.8-0.9,1.1-1.5l2.1,1.2c-0.3,0.8-0.8,1.5-1.5,2c-0.7,0.6-1.5,1-2.3,1.2s-1.7,0.4-2.6,0.4c-1.1,0-2.1-0.2-3-0.7     c-0.9-0.5-1.7-1.1-2.4-1.9s-1.2-1.7-1.6-2.6C322.2,98.5,322,97.5,322,96.5z"></path>
        <path class="st0" d="M354.5,90.9h-5.3v13.7h-2.5V90.9h-5.3v-2.2h13.1V90.9z"></path>
        <path class="st0" d="M361.1,104.6V88.7h2.5v15.9H361.1z"></path>
        <path class="st0" d="M378.2,104.7c-1.1,0-2.1-0.2-3.1-0.7c-0.9-0.4-1.7-1.1-2.4-1.8c-0.7-0.8-1.2-1.6-1.6-2.6     c-0.4-1-0.5-1.9-0.5-3c0-1.1,0.2-2.1,0.6-3c0.4-1,0.9-1.8,1.6-2.6s1.5-1.4,2.4-1.8c0.9-0.4,1.9-0.7,3-0.7c1.1,0,2.2,0.2,3.1,0.7     c0.9,0.5,1.7,1.1,2.4,1.9c0.7,0.8,1.2,1.6,1.5,2.6c0.4,1,0.5,1.9,0.5,2.9c0,1-0.2,2.1-0.6,3c-0.4,1-0.9,1.8-1.6,2.6     s-1.5,1.4-2.4,1.8C380.4,104.5,379.4,104.7,378.2,104.7z M373.2,96.6c0,0.8,0.1,1.5,0.4,2.2c0.2,0.7,0.6,1.3,1,1.9     c0.4,0.5,1,1,1.6,1.3c0.6,0.3,1.3,0.5,2.1,0.5c0.8,0,1.5-0.2,2.1-0.5s1.2-0.8,1.6-1.3s0.8-1.2,1-1.9s0.3-1.4,0.3-2.1     c0-0.8-0.1-1.5-0.4-2.2c-0.2-0.7-0.6-1.3-1-1.9c-0.5-0.5-1-1-1.6-1.3c-0.6-0.3-1.3-0.5-2.1-0.5c-0.8,0-1.5,0.2-2.2,0.5     s-1.1,0.8-1.6,1.3c-0.4,0.6-0.8,1.2-1,1.9C373.3,95.2,373.2,95.9,373.2,96.6z"></path>
        <path class="st0" d="M395.5,93.4v11.2H393V88.7h2.1l9,11.5V88.7h2.5v15.9h-2.2L395.5,93.4z"></path>
        <path class="st0" d="M437.7,88.7v15.9h-2.5v-7h-8v7h-2.5V88.7h2.5v6.6h8v-6.6H437.7z"></path>
        <path class="st0" d="M452.3,104.7c-1.1,0-2.1-0.2-3.1-0.7c-0.9-0.4-1.7-1.1-2.4-1.8c-0.7-0.8-1.2-1.6-1.6-2.6     c-0.4-1-0.5-1.9-0.5-3c0-1.1,0.2-2.1,0.6-3c0.4-1,0.9-1.8,1.6-2.6s1.5-1.4,2.4-1.8c0.9-0.4,1.9-0.7,3-0.7c1.1,0,2.2,0.2,3.1,0.7     c0.9,0.5,1.7,1.1,2.4,1.9c0.7,0.8,1.2,1.6,1.5,2.6c0.4,1,0.5,1.9,0.5,2.9c0,1-0.2,2.1-0.6,3c-0.4,1-0.9,1.8-1.6,2.6     s-1.5,1.4-2.4,1.8C454.4,104.5,453.4,104.7,452.3,104.7z M447.3,96.6c0,0.8,0.1,1.5,0.4,2.2s0.6,1.3,1,1.9c0.4,0.5,1,1,1.6,1.3     c0.6,0.3,1.3,0.5,2.1,0.5c0.8,0,1.5-0.2,2.1-0.5c0.6-0.3,1.2-0.8,1.6-1.3s0.8-1.2,1-1.9s0.3-1.4,0.3-2.1c0-0.8-0.1-1.5-0.4-2.2     c-0.2-0.7-0.6-1.3-1-1.9c-0.4-0.5-1-1-1.6-1.3c-0.6-0.3-1.3-0.5-2.1-0.5c-0.8,0-1.5,0.2-2.2,0.5c-0.6,0.3-1.1,0.8-1.6,1.3     s-0.8,1.2-1,1.9C447.4,95.2,447.3,95.9,447.3,96.6z"></path>
        <path class="st0" d="M473.7,104.7c-1.3,0-2.3-0.2-3.2-0.6s-1.6-1-2.1-1.8c-0.5-0.8-0.9-1.6-1.2-2.6c-0.2-0.9-0.4-1.9-0.4-3v-8.1     h2.5v8.1c0,0.7,0.1,1.4,0.2,2.1c0.1,0.7,0.4,1.3,0.7,1.8c0.3,0.5,0.8,1,1.3,1.3c0.5,0.3,1.2,0.5,2.1,0.5c0.9,0,1.5-0.2,2.1-0.5     c0.5-0.3,1-0.8,1.3-1.3c0.3-0.6,0.6-1.2,0.7-1.8c0.1-0.7,0.2-1.4,0.2-2.1v-8.1h2.5v8.1c0,1.1-0.1,2.1-0.4,3.1s-0.7,1.8-1.2,2.5     c-0.5,0.7-1.2,1.3-2.1,1.7C475.9,104.5,474.9,104.7,473.7,104.7z"></path>
        <path class="st0" d="M497.7,92.4c-0.1-0.2-0.4-0.3-0.6-0.5s-0.6-0.4-1-0.5c-0.4-0.2-0.8-0.3-1.2-0.4c-0.5-0.1-0.9-0.2-1.4-0.2     c-1,0-1.8,0.2-2.3,0.6c-0.5,0.4-0.8,0.9-0.8,1.6c0,0.5,0.1,0.9,0.4,1.2c0.3,0.3,0.7,0.5,1.3,0.7c0.6,0.2,1.3,0.4,2.2,0.6     c1.1,0.2,2,0.6,2.8,0.9c0.8,0.4,1.4,0.8,1.8,1.4c0.4,0.6,0.6,1.4,0.6,2.3c0,0.8-0.1,1.5-0.5,2.1s-0.7,1.1-1.3,1.4     c-0.5,0.4-1.2,0.6-1.9,0.8c-0.7,0.2-1.5,0.3-2.3,0.3c-0.8,0-1.6-0.1-2.4-0.3s-1.5-0.4-2.2-0.7s-1.4-0.7-2-1.2l1.2-2.1     c0.2,0.2,0.5,0.4,0.8,0.6s0.8,0.4,1.3,0.7c0.5,0.2,1,0.4,1.6,0.5c0.6,0.1,1.2,0.2,1.8,0.2c1,0,1.8-0.2,2.3-0.5s0.8-0.9,0.8-1.5     c0-0.5-0.2-0.9-0.5-1.3c-0.4-0.3-0.9-0.6-1.5-0.8s-1.4-0.4-2.3-0.7c-1-0.3-1.9-0.6-2.6-0.9c-0.7-0.3-1.2-0.8-1.6-1.3     c-0.3-0.5-0.5-1.2-0.5-2c0-1,0.2-1.9,0.8-2.6s1.2-1.3,2.1-1.6c0.9-0.4,1.9-0.6,2.9-0.6c0.7,0,1.4,0.1,2,0.2s1.2,0.4,1.8,0.6     s1.1,0.6,1.5,0.9L497.7,92.4z"></path>
        <path class="st0" d="M517.4,102.4v2.2h-10.9V88.7h10.7v2.2H509v4.5h7.1v2.1H509v4.9L517.4,102.4L517.4,102.4z"></path>
      </g>
    </g>
  </g>
</svg>